<svg width="40" height="40" viewBox="0 0 40 40" fill="none" xmlns="http://www.w3.org/2000/svg">
    <circle cx="10" cy="20" r="5" fill="#FF6B6B"/>
    <circle cx="10" cy="20" r="2" fill="white"/>
    
    <path d="M10 20 C 10 16, 13 12, 17 12 H 26 M 10 20 C 10 24, 13 28, 17 28 H 26" stroke="#E8D0B3" stroke-width="3" stroke-linecap="round" fill="none"/>
    
    <g transform="translate(24, 5)">
        <path d="M2 2 H 12 C 13.1 2 14 2.9 14 4 V 10 C 14 11.1 13.1 12 12 12 H 2 C 0.9 12 0 11.1 0 10 V 4 C 0 2.9 0.9 2 2 2 Z" fill="#7EB6FF"/>
        <circle cx="4" cy="6" r="0.8" fill="#4A4A4A"/>
        <circle cx="10" cy="6" r="0.8" fill="#4A4A4A"/>
        <path d="M5.5 8.5 C 6 9 8 9 8.5 8.5" stroke="#FF9E9E" stroke-width="0.8" stroke-linecap="round"/>
    </g>
    
    <g transform="translate(24, 21)">
        <path d="M2 2 H 12 C 13.1 2 14 2.9 14 4 V 10 C 14 11.1 13.1 12 12 12 H 2 C 0.9 12 0 11.1 0 10 V 4 C 0 2.9 0.9 2 2 2 Z" fill="#7EB6FF"/>
        <circle cx="4" cy="6" r="0.8" fill="#4A4A4A"/>
        <circle cx="10" cy="6" r="0.8" fill="#4A4A4A"/>
        <path d="M5.5 8.5 C 6 9 8 9 8.5 8.5" stroke="#FF9E9E" stroke-width="0.8" stroke-linecap="round"/>
    </g>
</svg>